<svg width="644" height="164" viewBox="0 0 644 164" fill="none" xmlns="http://www.w3.org/2000/svg">
<path fill-rule="evenodd" clip-rule="evenodd" d="M91 8C91 12.4183 87.4183 16 83 16C78.5817 16 75 12.4183 75 8C75 3.58172 78.5817 0 83 0C87.4183 0 91 3.58172 91 8ZM97 8C97 11.4299 95.7666 14.5717 93.7191 17.0061C121.593 21.8481 143.644 43.6623 148.838 71.4143C151.293 69.2871 154.496 68 158 68C158.833 68 159.649 68.0728 160.443 68.2123C154.065 36.3498 128.76 11.3235 96.7509 5.35711C96.9144 6.21297 97 7.09649 97 8ZM161.159 95.6421C160.144 95.8763 159.086 96 158 96C154.759 96 151.776 94.8989 149.403 93.0503C147.69 105.929 142.373 117.669 134.499 127.222C138.707 127.98 142.262 130.62 144.262 134.238C153.051 123.36 159.047 110.131 161.159 95.6421ZM82 152C95.2275 152 107.573 148.223 118.017 141.689C118.227 146.034 120.419 149.86 123.708 152.281C111.563 159.715 97.282 164 82 164C67.1595 164 53.2629 159.959 41.3503 152.918C44.8484 150.755 47.3234 147.096 47.881 142.834C57.9097 148.662 69.5651 152 82 152ZM29.8391 127.629C22.0282 118.3 16.6732 106.845 14.7687 94.258C12.7626 95.3681 10.4551 96 8.00001 96C6.14247 96 4.36942 95.6382 2.74748 94.9813C4.86665 110.418 11.3899 124.451 21.0088 135.772C22.5701 131.896 25.8157 128.879 29.8391 127.629ZM15.4169 70.1239C21.1634 42.4076 43.7799 20.8681 72.049 16.7229C70.1406 14.3303 69 11.2984 69 8C69 6.96986 69.1113 5.96571 69.3224 4.9989C36.1534 10.28 9.7803 35.9481 3.4507 68.7557C4.87704 68.2659 6.40747 68 8.00001 68C10.724 68 13.2664 68.778 15.4169 70.1239ZM34 149C38.4183 149 42 145.418 42 141C42 136.582 38.4183 133 34 133C29.5817 133 26 136.582 26 141C26 145.418 29.5817 149 34 149ZM140 141C140 145.418 136.418 149 132 149C127.582 149 124 145.418 124 141C124 136.582 127.582 133 132 133C136.418 133 140 136.582 140 141ZM158 90C162.418 90 166 86.4183 166 82C166 77.5817 162.418 74 158 74C153.582 74 150 77.5817 150 82C150 86.4183 153.582 90 158 90ZM16 82C16 86.4183 12.4183 90 7.99998 90C3.58171 90 -1.52588e-05 86.4183 -1.52588e-05 82C-1.52588e-05 77.5817 3.58171 74 7.99998 74C12.4183 74 16 77.5817 16 82ZM83 22L78.8792 31.1641L78.8669 31.1651L75.0122 39.7405L75.0236 39.7384L57.8186 78H70.976L83 51.2603L95.024 78H108.181L90.9763 39.7384L91.0374 39.7499L87.1829 31.1691L87.1208 31.1641L83 22ZM111.779 86H108.5H98.6213H67.3787H58H54.2213L35.737 127.107C40.0539 127.641 43.7618 130.14 45.9376 133.682L51.2347 121.902L51.2662 121.927L54.6443 114.326L54.6421 114.325L61.9827 98H104.017L111.358 114.325L111.346 114.335L111.621 114.91L120.062 133.682C122.238 130.14 125.946 127.641 130.263 127.107L123.764 112.653L123.777 112.635L119.922 104.053L119.907 104.077L111.779 86ZM124.253 94.171C125.39 90.3119 126 86.2272 126 82C126 64.7972 115.898 49.9538 101.303 43.0784L96.7149 32.8652C118.22 38.8553 134 58.5849 134 82C134 90.0287 132.145 97.6242 128.84 104.381L124.253 94.171ZM83 125C90.938 125 98.3736 122.849 104.756 119.098L108.215 126.341C100.778 130.579 92.1719 133 83 133C73.918 133 65.3904 130.626 58.004 126.465L61.271 119.114C67.6472 122.855 75.0731 125 83 125ZM32 82C32 58.5656 47.8057 38.8228 69.3382 32.8505L64.7525 43.0525C50.1274 49.9165 40 64.7755 40 82C40 86.2411 40.614 90.3387 41.7579 94.209L37.1736 104.408C33.8602 97.6443 32 90.0394 32 82ZM205.73 101.2L196.96 121H182.33L219.95 39.71L257.57 121H242.94L234.109 101.2H205.73ZM209.498 90.2H230.375L219.95 65.78L209.498 90.2ZM274.447 124.41H262.677C262.824 128.81 263.924 132.697 265.977 136.07C268.104 139.443 271.111 142.047 274.997 143.88C278.884 145.787 283.577 146.74 289.077 146.74C293.697 146.74 297.987 145.75 301.947 143.77C305.907 141.863 309.097 138.93 311.517 134.97C314.011 131.01 315.257 125.987 315.257 119.9V70.4H303.597V78.7765C301.948 76.1493 299.895 74.0538 297.437 72.49C294.284 70.3633 290.581 69.3 286.327 69.3C282.001 69.3 277.931 70.3267 274.117 72.38C270.377 74.4333 267.371 77.4033 265.097 81.29C262.824 85.1033 261.687 89.8333 261.687 95.48C261.687 100.98 262.824 105.673 265.097 109.56C267.371 113.447 270.377 116.417 274.117 118.47C277.931 120.523 282.001 121.55 286.327 121.55C290.581 121.55 294.284 120.523 297.437 118.47C299.895 116.85 301.948 114.72 303.597 112.08V119.9C303.597 123.713 302.864 126.83 301.397 129.25C300.004 131.67 298.171 133.467 295.897 134.64C293.624 135.813 291.241 136.4 288.747 136.4C285.961 136.4 283.504 135.887 281.377 134.86C279.251 133.833 277.564 132.403 276.317 130.57C275.144 128.737 274.521 126.683 274.447 124.41ZM303.597 95.48C303.597 92.84 303.157 90.5667 302.277 88.66C301.471 86.68 300.371 85.03 298.977 83.71C297.584 82.3167 296.007 81.29 294.247 80.63C292.561 79.97 290.874 79.64 289.187 79.64C286.474 79.64 283.944 80.2633 281.597 81.51C279.324 82.6833 277.491 84.4433 276.097 86.79C274.704 89.1367 274.007 92.0333 274.007 95.48C274.007 98.8533 274.704 101.713 276.097 104.06C277.491 106.407 279.324 108.203 281.597 109.45C283.944 110.623 286.474 111.21 289.187 111.21C291.461 111.21 293.697 110.623 295.897 109.45C298.171 108.277 300.004 106.517 301.397 104.17C302.864 101.75 303.597 98.8533 303.597 95.48ZM338.35 118.8C342.31 121 346.857 122.1 351.99 122.1C357.857 122.1 362.88 120.963 367.06 118.69C371.24 116.417 374.65 113.007 377.29 108.46L367.06 104.28C365.447 106.993 363.43 109.01 361.01 110.33C358.59 111.65 355.767 112.31 352.54 112.31C349.46 112.31 346.82 111.65 344.62 110.33C342.494 109.01 340.88 107.103 339.78 104.61C339.015 102.823 338.515 100.77 338.283 98.45H377.62C377.694 98.1567 377.73 97.68 377.73 97.02C377.804 96.36 377.84 95.7367 377.84 95.15C377.84 89.7233 376.814 85.1033 374.76 81.29C372.78 77.4033 369.92 74.4333 366.18 72.38C362.44 70.3267 357.894 69.3 352.54 69.3C347.187 69.3 342.53 70.4 338.57 72.6C334.61 74.7267 331.53 77.77 329.33 81.73C327.204 85.69 326.14 90.3467 326.14 95.7C326.14 100.98 327.204 105.6 329.33 109.56C331.457 113.52 334.464 116.6 338.35 118.8ZM338.605 90.31C338.899 88.7263 339.327 87.2963 339.89 86.02C340.99 83.5267 342.604 81.62 344.73 80.3C346.857 78.98 349.424 78.32 352.43 78.32C354.924 78.32 357.087 78.87 358.92 79.97C360.827 81.07 362.294 82.61 363.32 84.59C364.238 86.2416 364.773 88.1482 364.925 90.31H338.605ZM419.43 81.73C420.97 83.6367 421.74 86.46 421.74 90.2V121H433.95V88.88C433.95 82.7933 432.446 78.0267 429.44 74.58C426.433 71.06 422.07 69.3 416.35 69.3C412.83 69.3 409.786 70.0333 407.22 71.5C404.726 72.9667 402.673 75.2033 401.06 78.21V70.4H389.18V121H401.06V90.2C401.06 87.9267 401.536 85.9467 402.49 84.26C403.443 82.5 404.763 81.18 406.45 80.3C408.136 79.3467 410.08 78.87 412.28 78.87C415.506 78.87 417.89 79.8233 419.43 81.73ZM450.551 70.4H442.081V80.85H450.551V121H462.321V80.85H470.791V70.4H462.321V52.8H450.551V70.4ZM480.745 45.1C479.278 46.4933 478.545 48.2167 478.545 50.27C478.545 52.25 479.278 53.9733 480.745 55.44C482.285 56.8333 484.045 57.53 486.025 57.53C488.151 57.53 489.911 56.8333 491.305 55.44C492.771 53.9733 493.505 52.25 493.505 50.27C493.505 48.2167 492.771 46.4933 491.305 45.1C489.911 43.7067 488.151 43.01 486.025 43.01C484.045 43.01 482.285 43.7067 480.745 45.1ZM518.213 104.17C516.82 101.75 516.123 98.9267 516.123 95.7C516.123 92.5467 516.82 89.76 518.213 87.34C519.607 84.92 521.477 83.0133 523.823 81.62C526.243 80.2267 528.92 79.53 531.853 79.53C534.2 79.53 536.473 79.8967 538.673 80.63C540.873 81.3633 542.817 82.39 544.503 83.71C546.263 84.9567 547.547 86.4233 548.353 88.11V75.02C546.593 73.26 544.21 71.8667 541.203 70.84C538.197 69.8133 534.897 69.3 531.303 69.3C526.097 69.3 521.403 70.4367 517.223 72.71C513.117 74.91 509.853 77.99 507.433 81.95C505.087 85.91 503.913 90.4933 503.913 95.7C503.913 100.833 505.087 105.417 507.433 109.45C509.853 113.41 513.117 116.527 517.223 118.8C521.403 121 526.097 122.1 531.303 122.1C534.897 122.1 538.197 121.587 541.203 120.56C544.21 119.533 546.593 118.14 548.353 116.38V103.29C547.547 104.903 546.3 106.37 544.613 107.69C542.927 109.01 540.983 110.037 538.783 110.77C536.583 111.503 534.273 111.87 531.853 111.87C528.92 111.87 526.243 111.173 523.823 109.78C521.477 108.387 519.607 106.517 518.213 104.17ZM491.855 70.4H480.195V121H491.855V70.4ZM550.045 133.43C548.505 132.697 547.258 131.78 546.304 130.68L539.374 140.25C540.328 141.057 541.611 141.9 543.225 142.78C544.838 143.66 546.708 144.393 548.835 144.98C550.961 145.64 553.161 145.97 555.434 145.97C558.368 145.97 561.081 145.603 563.575 144.87C566.068 144.21 568.195 143.11 569.955 141.57C571.788 140.03 573.218 138.087 574.244 135.74C575.271 133.393 575.785 130.607 575.785 127.38V44H562.475V124.96C562.475 128.48 561.668 130.937 560.054 132.33C558.441 133.797 556.791 134.53 555.105 134.53C553.271 134.53 551.585 134.163 550.045 133.43ZM603.325 104.06C601.418 101.787 599.622 99.1833 597.935 96.25L588.255 102.96C589.942 106.48 592.215 109.743 595.075 112.75C597.935 115.757 601.272 118.177 605.085 120.01C608.972 121.77 613.188 122.65 617.735 122.65C621.035 122.65 624.188 122.1 627.195 121C630.275 119.973 633.025 118.507 635.445 116.6C637.865 114.62 639.772 112.2 641.165 109.34C642.558 106.48 643.255 103.253 643.255 99.66C643.255 96.2867 642.668 93.3533 641.495 90.86C640.395 88.3667 638.892 86.2033 636.985 84.37C635.078 82.4633 632.952 80.8867 630.605 79.64C628.332 78.3933 626.058 77.3667 623.785 76.56C619.678 75.0933 616.342 73.6633 613.775 72.27C611.208 70.8767 609.302 69.41 608.055 67.87C606.882 66.2567 606.295 64.46 606.295 62.48C606.295 60.28 607.138 58.3733 608.825 56.76C610.512 55.0733 613.152 54.23 616.745 54.23C619.312 54.23 621.548 54.7433 623.455 55.77C625.435 56.7233 627.158 58.0433 628.625 59.73C630.092 61.3433 631.302 63.1033 632.255 65.01L642.815 59.07C641.495 56.3567 639.662 53.7533 637.315 51.26C635.042 48.7667 632.218 46.7133 628.845 45.1C625.472 43.4867 621.512 42.68 616.965 42.68C612.345 42.68 608.202 43.56 604.535 45.32C600.942 47.0067 598.082 49.4267 595.955 52.58C593.828 55.66 592.765 59.2533 592.765 63.36C592.765 66.9533 593.462 70.0333 594.855 72.6C596.248 75.0933 598.008 77.22 600.135 78.98C602.262 80.6667 604.498 82.0967 606.845 83.27C609.192 84.37 611.318 85.25 613.225 85.91C616.452 87.0833 619.275 88.2933 621.695 89.54C624.188 90.7133 626.132 92.18 627.525 93.94C628.918 95.6267 629.615 97.9 629.615 100.76C629.615 103.767 628.515 106.223 626.315 108.13C624.115 110.037 621.255 110.99 617.735 110.99C614.802 110.99 612.162 110.403 609.815 109.23C607.468 107.983 605.305 106.26 603.325 104.06Z" fill="#E3E3E3"/>
</svg>
