<svg width="625" height="135" viewBox="0 0 625 135" fill="none" xmlns="http://www.w3.org/2000/svg">
<path fill-rule="evenodd" clip-rule="evenodd" d="M24 0C10.7452 0 0 10.7452 0 24V111C0 124.255 10.7452 135 24 135H111C124.255 135 135 124.255 135 111V24C135 10.7452 124.255 0 111 0H24ZM26.5781 107H47.3594L52.6221 90.2031H80.2497L85.5234 107H106.305L79.3125 27H53.5703L26.5781 107ZM75.6383 75.5156L66.7344 47.1562H66.1094L57.2239 75.5156H75.6383Z" fill="#0F172A"/>
<path d="M175.023 132.75C169.32 132.75 164.438 131.956 160.375 130.367C156.313 128.779 153.122 126.604 150.805 123.844C148.487 121.083 147.094 117.958 146.625 114.469L164.711 113.453C165.049 114.677 165.674 115.745 166.586 116.656C167.523 117.568 168.734 118.271 170.219 118.766C171.729 119.26 173.5 119.508 175.531 119.508C178.734 119.508 181.378 118.727 183.461 117.164C185.57 115.628 186.625 112.932 186.625 109.078V98.5312H185.961C185.206 100.38 184.06 102.034 182.523 103.492C180.987 104.951 179.073 106.096 176.781 106.93C174.516 107.763 171.911 108.18 168.969 108.18C164.594 108.18 160.583 107.164 156.938 105.133C153.318 103.076 150.414 99.8984 148.227 95.6016C146.065 91.2786 144.984 85.7187 144.984 78.9219C144.984 71.9167 146.104 66.1484 148.344 61.6172C150.583 57.0599 153.513 53.6875 157.133 51.5C160.779 49.3125 164.698 48.2188 168.891 48.2188C172.042 48.2188 174.737 48.7656 176.977 49.8594C179.242 50.9271 181.104 52.3073 182.562 54C184.021 55.6927 185.128 57.4505 185.883 59.2734H186.43V49H205.453V109.234C205.453 114.313 204.177 118.596 201.625 122.086C199.073 125.576 195.505 128.219 190.922 130.016C186.339 131.839 181.039 132.75 175.023 132.75ZM175.609 94.2734C177.927 94.2734 179.906 93.6615 181.547 92.4375C183.188 91.2135 184.451 89.4557 185.336 87.1641C186.221 84.8724 186.664 82.125 186.664 78.9219C186.664 75.6667 186.221 72.8672 185.336 70.5234C184.477 68.1536 183.214 66.3307 181.547 65.0547C179.906 63.7786 177.927 63.1406 175.609 63.1406C173.24 63.1406 171.234 63.7917 169.594 65.0937C167.953 66.3958 166.703 68.2318 165.844 70.6016C165.01 72.9453 164.594 75.7187 164.594 78.9219C164.594 82.125 165.023 84.8724 165.883 87.1641C166.742 89.4557 167.979 91.2135 169.594 92.4375C171.234 93.6615 173.24 94.2734 175.609 94.2734ZM245.678 110.133C239.402 110.133 233.985 108.896 229.428 106.422C224.896 103.922 221.407 100.367 218.959 95.7578C216.537 91.1224 215.326 85.6146 215.326 79.2344C215.326 73.0365 216.55 67.6198 218.998 62.9844C221.446 58.3229 224.896 54.7031 229.35 52.125C233.803 49.5208 239.05 48.2188 245.092 48.2188C249.363 48.2188 253.269 48.8828 256.811 50.2109C260.352 51.5391 263.412 53.5052 265.99 56.1094C268.568 58.7135 270.574 61.9297 272.006 65.7578C273.438 69.5599 274.154 73.9219 274.154 78.8437V83.6094H222.006V72.5156H256.381C256.355 70.4844 255.873 68.6745 254.936 67.0859C253.998 65.4974 252.709 64.2604 251.068 63.375C249.454 62.4635 247.592 62.0078 245.482 62.0078C243.347 62.0078 241.433 62.4896 239.74 63.4531C238.048 64.3906 236.706 65.6797 235.717 67.3203C234.727 68.9349 234.206 70.7708 234.154 72.8281V84.1172C234.154 86.5651 234.636 88.7135 235.6 90.5625C236.563 92.3854 237.93 93.8047 239.701 94.8203C241.472 95.8359 243.581 96.3437 246.029 96.3437C247.722 96.3437 249.258 96.1094 250.639 95.6406C252.019 95.1719 253.204 94.4818 254.193 93.5703C255.183 92.6589 255.925 91.5391 256.42 90.2109L273.959 90.7187C273.23 94.651 271.628 98.0755 269.154 100.992C266.706 103.883 263.49 106.135 259.506 107.75C255.521 109.339 250.912 110.133 245.678 110.133ZM303.012 74.7812V109H283.91V49H302.074V60.0156H302.738C304.066 56.3437 306.332 53.4661 309.535 51.3828C312.738 49.2734 316.553 48.2188 320.98 48.2188C325.199 48.2188 328.858 49.1693 331.957 51.0703C335.082 52.9453 337.504 55.5755 339.223 58.9609C340.967 62.3203 341.827 66.2526 341.801 70.7578V109H322.699V74.5078C322.725 71.1745 321.879 68.5703 320.16 66.6953C318.467 64.8203 316.111 63.8828 313.09 63.8828C311.085 63.8828 309.314 64.3255 307.777 65.2109C306.267 66.0703 305.095 67.3073 304.262 68.9219C303.454 70.5365 303.038 72.4896 303.012 74.7812ZM387.494 49V63.0625H349.643V49H387.494ZM357.572 34.625H376.674V90.1328C376.674 91.3047 376.856 92.2552 377.221 92.9844C377.611 93.6875 378.171 94.1953 378.9 94.5078C379.63 94.7943 380.502 94.9375 381.518 94.9375C382.247 94.9375 383.015 94.8724 383.822 94.7422C384.656 94.5859 385.281 94.4557 385.697 94.3516L388.588 108.141C387.676 108.401 386.387 108.727 384.721 109.117C383.08 109.508 381.114 109.755 378.822 109.859C374.343 110.068 370.502 109.547 367.299 108.297C364.122 107.021 361.687 105.042 359.994 102.359C358.327 99.6771 357.52 96.3047 357.572 92.2422V34.625ZM397.24 109V49H416.342V109H397.24ZM406.811 42.0078C404.128 42.0078 401.824 41.1224 399.896 39.3516C397.969 37.5547 397.006 35.3932 397.006 32.8672C397.006 30.3672 397.969 28.2318 399.896 26.4609C401.824 24.6641 404.128 23.7656 406.811 23.7656C409.519 23.7656 411.824 24.6641 413.725 26.4609C415.652 28.2318 416.615 30.3672 416.615 32.8672C416.615 35.3932 415.652 37.5547 413.725 39.3516C411.824 41.1224 409.519 42.0078 406.811 42.0078ZM456.508 110.133C450.18 110.133 444.75 108.831 440.219 106.227C435.714 103.622 432.25 100.003 429.828 95.3672C427.406 90.7057 426.195 85.3151 426.195 79.1953C426.195 73.0495 427.406 67.6589 429.828 63.0234C432.276 58.362 435.753 54.7292 440.258 52.125C444.789 49.5208 450.193 48.2188 456.469 48.2188C462.016 48.2188 466.846 49.2214 470.961 51.2266C475.102 53.2318 478.331 56.0703 480.648 59.7422C482.992 63.388 484.229 67.6719 484.359 72.5938H466.508C466.143 69.5208 465.102 67.112 463.383 65.3672C461.69 63.6224 459.477 62.75 456.742 62.75C454.529 62.75 452.589 63.375 450.922 64.625C449.255 65.849 447.953 67.6719 447.016 70.0937C446.104 72.4896 445.648 75.4583 445.648 79C445.648 82.5417 446.104 85.5365 447.016 87.9844C447.953 90.4062 449.255 92.2422 450.922 93.4922C452.589 94.7161 454.529 95.3281 456.742 95.3281C458.513 95.3281 460.076 94.9505 461.43 94.1953C462.81 93.4401 463.943 92.3333 464.828 90.875C465.714 89.3906 466.273 87.5937 466.508 85.4844H484.359C484.177 90.4323 482.94 94.7552 480.648 98.4531C478.383 102.151 475.193 105.029 471.078 107.086C466.99 109.117 462.133 110.133 456.508 110.133ZM526.635 29H545.697V84.3125C545.671 89.4948 544.434 94.026 541.986 97.9062C539.538 101.76 536.153 104.755 531.83 106.891C527.533 109.026 522.559 110.094 516.908 110.094C511.908 110.094 507.364 109.221 503.275 107.477C499.213 105.732 495.971 103.023 493.549 99.3516C491.153 95.6797 489.968 90.9792 489.994 85.25H509.252C509.33 87.3073 509.721 89.0651 510.424 90.5234C511.153 91.9557 512.156 93.0365 513.432 93.7656C514.708 94.4948 516.231 94.8594 518.002 94.8594C519.851 94.8594 521.413 94.4687 522.689 93.6875C523.965 92.8802 524.929 91.6953 525.58 90.1328C526.257 88.5703 526.609 86.6302 526.635 84.3125V29ZM601.078 52.9844C600.818 50.1198 599.659 47.8932 597.602 46.3047C595.57 44.6901 592.667 43.8828 588.891 43.8828C586.391 43.8828 584.307 44.2083 582.641 44.8594C580.974 45.5104 579.724 46.4089 578.891 47.5547C578.057 48.6745 577.628 49.9635 577.602 51.4219C577.549 52.6198 577.784 53.6745 578.305 54.5859C578.852 55.4974 579.633 56.3047 580.648 57.0078C581.69 57.6849 582.94 58.2839 584.398 58.8047C585.857 59.3255 587.497 59.7812 589.32 60.1719L596.195 61.7344C600.154 62.5938 603.643 63.7396 606.664 65.1719C609.711 66.6042 612.263 68.3099 614.32 70.2891C616.404 72.2682 617.979 74.5469 619.047 77.125C620.115 79.7031 620.661 82.5937 620.688 85.7969C620.661 90.849 619.385 95.1849 616.859 98.8047C614.333 102.424 610.701 105.198 605.961 107.125C601.247 109.052 595.557 110.016 588.891 110.016C582.198 110.016 576.365 109.013 571.391 107.008C566.417 105.003 562.549 101.956 559.789 97.8672C557.029 93.7786 555.609 88.6094 555.531 82.3594H574.047C574.203 84.9375 574.893 87.0859 576.117 88.8047C577.341 90.5234 579.021 91.8255 581.156 92.7109C583.318 93.5964 585.818 94.0391 588.656 94.0391C591.26 94.0391 593.474 93.6875 595.297 92.9844C597.146 92.2813 598.565 91.3047 599.555 90.0547C600.544 88.8047 601.052 87.3724 601.078 85.7578C601.052 84.2474 600.583 82.9583 599.672 81.8906C598.76 80.7969 597.354 79.8594 595.453 79.0781C593.578 78.2708 591.182 77.5286 588.266 76.8516L579.906 74.8984C572.979 73.3099 567.523 70.7448 563.539 67.2031C559.555 63.6354 557.576 58.8177 557.602 52.75C557.576 47.8021 558.904 43.4661 561.586 39.7422C564.268 36.0182 567.979 33.1146 572.719 31.0313C577.458 28.9479 582.862 27.9062 588.93 27.9062C595.128 27.9062 600.505 28.9609 605.062 31.0703C609.646 33.1536 613.201 36.0833 615.727 39.8594C618.253 43.6354 619.542 48.0104 619.594 52.9844H601.078Z" fill="#0F172A"/>
</svg>
