<svg width="2193" height="512" viewBox="0 0 2193 512" fill="none" xmlns="http://www.w3.org/2000/svg">
<path d="M462.696 56.8887H45.5112V455.111H462.696V56.8887Z" fill="white"/>
<path fill-rule="evenodd" clip-rule="evenodd" d="M91.0222 0C40.7522 0 0 40.7522 0 91.0222V420.978C0 471.249 40.7522 512 91.0222 512H420.978C471.249 512 512 471.249 512 420.978V91.0222C512 40.7522 471.249 0 420.978 0H91.0222ZM129.156 102.4V405.807H202.489V323.585L231.822 286.548L307.378 405.807H395.082L285.6 237.807L393.155 102.4H306.785L206.489 230.696H202.489V102.4H129.156Z" fill="#0F172A"/>
<path d="M621.868 417.246C607.35 417.246 594.459 414.826 583.198 409.987C572.041 405.045 563.2 397.638 556.681 387.762C550.264 377.788 547.051 365.294 547.051 350.282C547.051 337.639 549.274 326.973 553.719 318.282C558.164 309.59 564.285 302.528 572.09 297.096C579.891 291.664 588.88 287.565 599.051 284.8C609.223 281.936 620.089 280.01 631.645 279.022C644.582 277.837 655.004 276.603 662.904 275.319C670.804 273.936 676.534 272.01 680.088 269.541C683.744 266.973 685.572 263.368 685.572 258.726V257.985C685.572 250.38 682.955 244.504 677.717 240.356C672.484 236.207 665.422 234.133 656.532 234.133C646.952 234.133 639.249 236.207 633.424 240.356C627.595 244.504 623.893 250.232 622.311 257.541L555.497 255.17C557.473 241.343 562.559 228.998 570.755 218.133C579.053 207.17 590.408 198.578 604.831 192.355C619.349 186.035 636.78 182.874 657.127 182.874C671.646 182.874 685.026 184.603 697.276 188.059C709.522 191.418 720.187 196.355 729.274 202.874C738.361 209.294 745.373 217.195 750.311 226.578C755.348 235.96 757.866 246.677 757.866 258.726V413.393H689.717V381.69H687.942C683.892 389.393 678.707 395.913 672.385 401.245C666.161 406.577 658.804 410.579 650.312 413.245C641.915 415.911 632.434 417.246 621.868 417.246ZM644.236 369.837C652.038 369.837 659.05 368.257 665.274 365.096C671.596 361.936 676.633 357.59 680.384 352.059C684.138 346.43 686.016 339.911 686.016 332.504V310.874C683.941 311.96 681.423 312.948 678.461 313.837C675.594 314.726 672.434 315.565 668.979 316.356C665.52 317.146 661.967 317.837 658.311 318.43C654.658 319.022 651.15 319.565 647.794 320.059C640.979 321.146 635.149 322.825 630.31 325.096C625.569 327.368 621.917 330.331 619.349 333.985C616.88 337.541 615.644 341.788 615.644 346.726C615.644 354.232 618.31 359.961 623.646 363.911C629.077 367.862 635.942 369.837 644.236 369.837ZM802.164 413.393V185.837H874.606V413.393H802.164ZM838.459 159.319C828.287 159.319 819.545 155.961 812.237 149.245C804.929 142.43 801.273 134.232 801.273 124.652C801.273 115.17 804.929 107.072 812.237 100.355C819.545 93.5409 828.287 90.1333 838.459 90.1333C848.729 90.1333 857.471 93.5409 864.681 100.355C871.989 107.072 875.645 115.17 875.645 124.652C875.645 134.232 871.989 142.43 864.681 149.245C857.471 155.961 848.729 159.319 838.459 159.319ZM920.72 413.393V109.985H993.162V224.8H994.645C997.607 217.886 1001.81 211.22 1007.24 204.8C1012.77 198.38 1019.78 193.146 1028.27 189.096C1036.87 184.948 1047.14 182.874 1059.09 182.874C1074.89 182.874 1089.66 187.022 1103.39 195.319C1117.21 203.615 1128.37 216.405 1136.87 233.689C1145.36 250.973 1149.61 272.998 1149.61 299.763C1149.61 325.541 1145.51 347.121 1137.31 364.504C1129.21 381.888 1118.25 394.923 1104.42 403.615C1090.69 412.308 1075.44 416.65 1058.65 416.65C1047.19 416.65 1037.26 414.777 1028.87 411.022C1020.47 407.268 1013.41 402.33 1007.68 396.208C1002.05 390.083 997.706 383.515 994.645 376.504H992.423V413.393H920.72ZM991.683 299.615C991.683 311.862 993.31 322.529 996.572 331.615C999.929 340.701 1004.72 347.763 1010.94 352.8C1017.26 357.738 1024.82 360.208 1033.61 360.208C1042.5 360.208 1050.05 357.738 1056.28 352.8C1062.49 347.763 1067.19 340.701 1070.35 331.615C1073.61 322.529 1075.24 311.862 1075.24 299.615C1075.24 287.368 1073.61 276.751 1070.35 267.763C1067.19 258.775 1062.49 251.812 1056.28 246.874C1050.15 241.936 1042.6 239.467 1033.61 239.467C1024.72 239.467 1017.16 241.886 1010.94 246.726C1004.72 251.565 999.929 258.479 996.572 267.467C993.31 276.454 991.683 287.17 991.683 299.615ZM1251.72 417.246C1237.2 417.246 1224.31 414.826 1213.05 409.987C1201.89 405.045 1193.05 397.638 1186.53 387.762C1180.11 377.788 1176.9 365.294 1176.9 350.282C1176.9 337.639 1179.12 326.973 1183.57 318.282C1188.01 309.59 1194.14 302.528 1201.94 297.096C1209.74 291.664 1218.73 287.565 1228.9 284.8C1239.08 281.936 1249.94 280.01 1261.5 279.022C1274.44 277.837 1284.85 276.603 1292.75 275.319C1300.66 273.936 1306.39 272.01 1309.94 269.541C1313.59 266.973 1315.42 263.368 1315.42 258.726V257.985C1315.42 250.38 1312.81 244.504 1307.57 240.356C1302.33 236.207 1295.27 234.133 1286.39 234.133C1276.81 234.133 1269.1 236.207 1263.27 240.356C1257.45 244.504 1253.74 250.232 1252.16 257.541L1185.35 255.17C1187.32 241.343 1192.41 228.998 1200.61 218.133C1208.9 207.17 1220.26 198.578 1234.68 192.355C1249.2 186.035 1266.63 182.874 1286.98 182.874C1301.5 182.874 1314.88 184.603 1327.13 188.059C1339.37 191.418 1350.04 196.355 1359.12 202.874C1368.21 209.294 1375.22 217.195 1380.16 226.578C1385.2 235.96 1387.72 246.677 1387.72 258.726V413.393H1319.57V381.69H1317.79C1313.74 389.393 1308.56 395.913 1302.24 401.245C1296.02 406.577 1288.66 410.579 1280.16 413.245C1271.77 415.911 1262.28 417.246 1251.72 417.246ZM1274.09 369.837C1281.89 369.837 1288.91 368.257 1295.12 365.096C1301.45 361.936 1306.48 357.59 1310.24 352.059C1313.99 346.43 1315.87 339.911 1315.87 332.504V310.874C1313.79 311.96 1311.27 312.948 1308.31 313.837C1305.45 314.726 1302.29 315.565 1298.83 316.356C1295.37 317.146 1291.82 317.837 1288.16 318.43C1284.51 319.022 1281 319.565 1277.64 320.059C1270.83 321.146 1265 322.825 1260.16 325.096C1255.42 327.368 1251.77 330.331 1249.2 333.985C1246.73 337.541 1245.5 341.788 1245.5 346.726C1245.5 354.232 1248.16 359.961 1253.5 363.911C1258.93 367.862 1265.79 369.837 1274.09 369.837ZM1504.46 283.615V413.393H1432.01V185.837H1500.9V227.615H1503.42C1508.46 213.689 1517.05 202.775 1529.2 194.874C1541.35 186.874 1555.82 182.874 1572.61 182.874C1588.61 182.874 1602.48 186.479 1614.24 193.689C1626.09 200.8 1635.27 210.775 1641.79 223.615C1648.41 236.356 1651.67 251.269 1651.57 268.356V413.393H1579.13V282.578C1579.22 269.936 1576.02 260.059 1569.5 252.948C1563.08 245.837 1554.14 242.282 1542.68 242.282C1535.08 242.282 1528.36 243.96 1522.53 247.318C1516.81 250.578 1512.36 255.269 1509.2 261.393C1506.14 267.516 1504.56 274.924 1504.46 283.615ZM1819.68 109.985H1891.98V319.763C1891.88 339.417 1887.19 356.602 1877.9 371.318C1868.62 385.934 1855.78 397.293 1839.38 405.394C1823.09 413.491 1804.22 417.542 1782.79 417.542C1763.83 417.542 1746.6 414.231 1731.09 407.617C1715.68 400.998 1703.39 390.724 1694.2 376.8C1685.11 362.874 1680.62 345.047 1680.72 323.319H1753.76C1754.05 331.121 1755.53 337.788 1758.2 343.318C1760.97 348.751 1764.77 352.85 1769.61 355.615C1774.45 358.38 1780.22 359.763 1786.94 359.763C1793.95 359.763 1799.88 358.281 1804.72 355.319C1809.56 352.257 1813.21 347.763 1815.68 341.837C1818.25 335.911 1819.58 328.553 1819.68 319.763V109.985ZM2102.01 200.948C2101.03 190.084 2096.63 181.639 2088.83 175.615C2081.12 169.491 2070.11 166.43 2055.79 166.43C2046.31 166.43 2038.41 167.664 2032.09 170.133C2025.77 172.602 2021.03 176.01 2017.87 180.356C2014.7 184.603 2013.08 189.491 2012.98 195.022C2012.78 199.566 2013.67 203.566 2015.65 207.022C2017.72 210.479 2020.68 213.541 2024.54 216.207C2028.48 218.775 2033.22 221.047 2038.76 223.022C2044.29 224.998 2050.51 226.726 2057.42 228.208L2083.49 234.133C2098.51 237.393 2111.74 241.738 2123.2 247.171C2134.76 252.603 2144.43 259.072 2152.24 266.578C2160.14 274.084 2166.11 282.726 2170.16 292.504C2174.21 302.281 2176.29 313.244 2176.39 325.393C2176.29 344.553 2171.45 360.998 2161.87 374.726C2152.29 388.453 2138.51 398.973 2120.53 406.282C2102.66 413.59 2081.08 417.246 2055.79 417.246C2030.41 417.246 2008.29 413.442 1989.42 405.838C1970.56 398.234 1955.89 386.678 1945.42 371.17C1934.95 355.664 1929.57 336.059 1929.27 312.356H1999.5C2000.09 322.133 2002.71 330.281 2007.35 336.8C2011.99 343.318 2018.36 348.257 2026.46 351.615C2034.66 354.973 2044.14 356.652 2054.9 356.652C2064.78 356.652 2073.18 355.319 2080.09 352.652C2087.1 349.985 2092.48 346.282 2096.24 341.541C2099.99 336.8 2101.92 331.368 2102.01 325.244C2101.92 319.516 2100.14 314.627 2096.68 310.578C2093.22 306.43 2087.89 302.874 2080.68 299.911C2073.57 296.849 2064.48 294.034 2053.42 291.467L2021.72 284.059C1995.45 278.035 1974.76 268.306 1959.64 254.874C1944.53 241.343 1937.03 223.072 1937.13 200.059C1937.03 181.294 1942.07 164.849 1952.24 150.726C1962.41 136.602 1976.48 125.59 1994.46 117.689C2012.43 109.788 2032.93 105.837 2055.94 105.837C2079.45 105.837 2099.84 109.837 2117.13 117.837C2134.51 125.738 2147.99 136.849 2157.57 151.171C2167.15 165.491 2172.04 182.084 2172.24 200.948H2102.01Z" fill="#0F172A"/>
</svg>
