<svg width="616" height="133" viewBox="0 0 616 133" fill="none" xmlns="http://www.w3.org/2000/svg">
<path fill-rule="evenodd" clip-rule="evenodd" d="M24 4C10.7452 4 0 14.7452 0 28V105C0 118.255 10.7452 129 24 129H101C114.255 129 125 118.255 125 105V28C125 14.7452 114.255 4 101 4H24ZM22.5781 107H43.3594L48.6221 90.2031H76.2497L81.5234 107H102.305L75.3125 27H49.5703L22.5781 107ZM71.6383 75.5156L62.7344 47.1562H62.1094L53.2239 75.5156H71.6383Z" fill="#0F172A"/>
<path d="M166.023 130.75C160.32 130.75 155.438 129.956 151.375 128.367C147.313 126.779 144.122 124.604 141.805 121.844C139.487 119.083 138.094 115.958 137.625 112.469L155.711 111.453C156.049 112.677 156.674 113.745 157.586 114.656C158.523 115.568 159.734 116.271 161.219 116.766C162.729 117.26 164.5 117.508 166.531 117.508C169.734 117.508 172.378 116.727 174.461 115.164C176.57 113.628 177.625 110.932 177.625 107.078V96.5312H176.961C176.206 98.3802 175.06 100.034 173.523 101.492C171.987 102.951 170.073 104.096 167.781 104.93C165.516 105.763 162.911 106.18 159.969 106.18C155.594 106.18 151.583 105.164 147.938 103.133C144.318 101.076 141.414 97.8984 139.227 93.6016C137.065 89.2786 135.984 83.7187 135.984 76.9219C135.984 69.9167 137.104 64.1484 139.344 59.6172C141.583 55.0599 144.513 51.6875 148.133 49.5C151.779 47.3125 155.698 46.2188 159.891 46.2188C163.042 46.2188 165.737 46.7656 167.977 47.8594C170.242 48.9271 172.104 50.3073 173.562 52C175.021 53.6927 176.128 55.4505 176.883 57.2734H177.43V47H196.453V107.234C196.453 112.313 195.177 116.596 192.625 120.086C190.073 123.576 186.505 126.219 181.922 128.016C177.339 129.839 172.039 130.75 166.023 130.75ZM166.609 92.2734C168.927 92.2734 170.906 91.6615 172.547 90.4375C174.188 89.2135 175.451 87.4557 176.336 85.1641C177.221 82.8724 177.664 80.125 177.664 76.9219C177.664 73.6667 177.221 70.8672 176.336 68.5234C175.477 66.1536 174.214 64.3307 172.547 63.0547C170.906 61.7786 168.927 61.1406 166.609 61.1406C164.24 61.1406 162.234 61.7917 160.594 63.0937C158.953 64.3958 157.703 66.2318 156.844 68.6016C156.01 70.9453 155.594 73.7187 155.594 76.9219C155.594 80.125 156.023 82.8724 156.883 85.1641C157.742 87.4557 158.979 89.2135 160.594 90.4375C162.234 91.6615 164.24 92.2734 166.609 92.2734ZM236.678 108.133C230.402 108.133 224.985 106.896 220.428 104.422C215.896 101.922 212.407 98.3672 209.959 93.7578C207.537 89.1224 206.326 83.6146 206.326 77.2344C206.326 71.0365 207.55 65.6198 209.998 60.9844C212.446 56.3229 215.896 52.7031 220.35 50.125C224.803 47.5208 230.05 46.2188 236.092 46.2188C240.363 46.2188 244.269 46.8828 247.811 48.2109C251.352 49.5391 254.412 51.5052 256.99 54.1094C259.568 56.7135 261.574 59.9297 263.006 63.7578C264.438 67.5599 265.154 71.9219 265.154 76.8437V81.6094H213.006V70.5156H247.381C247.355 68.4844 246.873 66.6745 245.936 65.0859C244.998 63.4974 243.709 62.2604 242.068 61.375C240.454 60.4635 238.592 60.0078 236.482 60.0078C234.347 60.0078 232.433 60.4896 230.74 61.4531C229.048 62.3906 227.706 63.6797 226.717 65.3203C225.727 66.9349 225.206 68.7708 225.154 70.8281V82.1172C225.154 84.5651 225.636 86.7135 226.6 88.5625C227.563 90.3854 228.93 91.8047 230.701 92.8203C232.472 93.8359 234.581 94.3437 237.029 94.3437C238.722 94.3437 240.258 94.1094 241.639 93.6406C243.019 93.1719 244.204 92.4818 245.193 91.5703C246.183 90.6589 246.925 89.5391 247.42 88.2109L264.959 88.7187C264.23 92.651 262.628 96.0755 260.154 98.9922C257.706 101.883 254.49 104.135 250.506 105.75C246.521 107.339 241.912 108.133 236.678 108.133ZM294.012 72.7812V107H274.91V47H293.074V58.0156H293.738C295.066 54.3437 297.332 51.4661 300.535 49.3828C303.738 47.2734 307.553 46.2188 311.98 46.2188C316.199 46.2188 319.858 47.1693 322.957 49.0703C326.082 50.9453 328.504 53.5755 330.223 56.9609C331.967 60.3203 332.827 64.2526 332.801 68.7578V107H313.699V72.5078C313.725 69.1745 312.879 66.5703 311.16 64.6953C309.467 62.8203 307.111 61.8828 304.09 61.8828C302.085 61.8828 300.314 62.3255 298.777 63.2109C297.267 64.0703 296.095 65.3073 295.262 66.9219C294.454 68.5365 294.038 70.4896 294.012 72.7812ZM378.494 47V61.0625H340.643V47H378.494ZM348.572 32.625H367.674V88.1328C367.674 89.3047 367.856 90.2552 368.221 90.9844C368.611 91.6875 369.171 92.1953 369.9 92.5078C370.63 92.7943 371.502 92.9375 372.518 92.9375C373.247 92.9375 374.015 92.8724 374.822 92.7422C375.656 92.5859 376.281 92.4557 376.697 92.3516L379.588 106.141C378.676 106.401 377.387 106.727 375.721 107.117C374.08 107.508 372.114 107.755 369.822 107.859C365.343 108.068 361.502 107.547 358.299 106.297C355.122 105.021 352.687 103.042 350.994 100.359C349.327 97.6771 348.52 94.3047 348.572 90.2422V32.625ZM388.24 107V47H407.342V107H388.24ZM397.811 40.0078C395.128 40.0078 392.824 39.1224 390.896 37.3516C388.969 35.5547 388.006 33.3932 388.006 30.8672C388.006 28.3672 388.969 26.2318 390.896 24.4609C392.824 22.6641 395.128 21.7656 397.811 21.7656C400.519 21.7656 402.824 22.6641 404.725 24.4609C406.652 26.2318 407.615 28.3672 407.615 30.8672C407.615 33.3932 406.652 35.5547 404.725 37.3516C402.824 39.1224 400.519 40.0078 397.811 40.0078ZM447.508 108.133C441.18 108.133 435.75 106.831 431.219 104.227C426.714 101.622 423.25 98.0026 420.828 93.3672C418.406 88.7057 417.195 83.3151 417.195 77.1953C417.195 71.0495 418.406 65.6589 420.828 61.0234C423.276 56.362 426.753 52.7292 431.258 50.125C435.789 47.5208 441.193 46.2188 447.469 46.2188C453.016 46.2188 457.846 47.2214 461.961 49.2266C466.102 51.2318 469.331 54.0703 471.648 57.7422C473.992 61.388 475.229 65.6719 475.359 70.5938H457.508C457.143 67.5208 456.102 65.112 454.383 63.3672C452.69 61.6224 450.477 60.75 447.742 60.75C445.529 60.75 443.589 61.375 441.922 62.625C440.255 63.849 438.953 65.6719 438.016 68.0937C437.104 70.4896 436.648 73.4583 436.648 77C436.648 80.5417 437.104 83.5365 438.016 85.9844C438.953 88.4062 440.255 90.2422 441.922 91.4922C443.589 92.7161 445.529 93.3281 447.742 93.3281C449.513 93.3281 451.076 92.9505 452.43 92.1953C453.81 91.4401 454.943 90.3333 455.828 88.875C456.714 87.3906 457.273 85.5937 457.508 83.4844H475.359C475.177 88.4323 473.94 92.7552 471.648 96.4531C469.383 100.151 466.193 103.029 462.078 105.086C457.99 107.117 453.133 108.133 447.508 108.133ZM517.635 27H536.697V82.3125C536.671 87.4948 535.434 92.026 532.986 95.9062C530.538 99.7604 527.153 102.755 522.83 104.891C518.533 107.026 513.559 108.094 507.908 108.094C502.908 108.094 498.364 107.221 494.275 105.477C490.213 103.732 486.971 101.023 484.549 97.3516C482.153 93.6797 480.968 88.9792 480.994 83.25H500.252C500.33 85.3073 500.721 87.0651 501.424 88.5234C502.153 89.9557 503.156 91.0365 504.432 91.7656C505.708 92.4948 507.231 92.8594 509.002 92.8594C510.851 92.8594 512.413 92.4687 513.689 91.6875C514.965 90.8802 515.929 89.6953 516.58 88.1328C517.257 86.5703 517.609 84.6302 517.635 82.3125V27ZM592.078 50.9844C591.818 48.1198 590.659 45.8932 588.602 44.3047C586.57 42.6901 583.667 41.8828 579.891 41.8828C577.391 41.8828 575.307 42.2083 573.641 42.8594C571.974 43.5104 570.724 44.4089 569.891 45.5547C569.057 46.6745 568.628 47.9635 568.602 49.4219C568.549 50.6198 568.784 51.6745 569.305 52.5859C569.852 53.4974 570.633 54.3047 571.648 55.0078C572.69 55.6849 573.94 56.2839 575.398 56.8047C576.857 57.3255 578.497 57.7812 580.32 58.1719L587.195 59.7344C591.154 60.5938 594.643 61.7396 597.664 63.1719C600.711 64.6042 603.263 66.3099 605.32 68.2891C607.404 70.2682 608.979 72.5469 610.047 75.125C611.115 77.7031 611.661 80.5937 611.688 83.7969C611.661 88.849 610.385 93.1849 607.859 96.8047C605.333 100.424 601.701 103.198 596.961 105.125C592.247 107.052 586.557 108.016 579.891 108.016C573.198 108.016 567.365 107.013 562.391 105.008C557.417 103.003 553.549 99.9557 550.789 95.8672C548.029 91.7786 546.609 86.6094 546.531 80.3594H565.047C565.203 82.9375 565.893 85.0859 567.117 86.8047C568.341 88.5234 570.021 89.8255 572.156 90.7109C574.318 91.5964 576.818 92.0391 579.656 92.0391C582.26 92.0391 584.474 91.6875 586.297 90.9844C588.146 90.2813 589.565 89.3047 590.555 88.0547C591.544 86.8047 592.052 85.3724 592.078 83.7578C592.052 82.2474 591.583 80.9583 590.672 79.8906C589.76 78.7969 588.354 77.8594 586.453 77.0781C584.578 76.2708 582.182 75.5286 579.266 74.8516L570.906 72.8984C563.979 71.3099 558.523 68.7448 554.539 65.2031C550.555 61.6354 548.576 56.8177 548.602 50.75C548.576 45.8021 549.904 41.4661 552.586 37.7422C555.268 34.0182 558.979 31.1146 563.719 29.0313C568.458 26.9479 573.862 25.9062 579.93 25.9062C586.128 25.9062 591.505 26.9609 596.062 29.0703C600.646 31.1536 604.201 34.0833 606.727 37.8594C609.253 41.6354 610.542 46.0104 610.594 50.9844H592.078Z" fill="#0F172A"/>
</svg>
